<svg width="371" height="311" viewBox="0 0 371 311" fill="none" xmlns="http://www.w3.org/2000/svg">
<path d="M253.937 165.78L186.842 305L115.417 165.78L130.29 132.716C8.82872 59.3281 -94.3205 -20.0854 160.499 65.5614L186.842 7L211.64 65.6849C465.316 -18.1731 361.691 59.8877 240.459 133.884L253.937 165.78Z" fill="#2F4550"/>
<path d="M186.842 305L253.937 165.78L220.39 86.39M186.842 305L115.417 165.78L151.129 86.39M186.842 305V165.78M186.842 165.78C40.9626 83.13 -156.559 -48.4579 220.39 86.39M186.842 165.78C331.999 81.4041 525.351 -45.3513 151.129 86.39M220.39 86.39L186.842 7L151.129 86.39" stroke="#B8DBD9" stroke-width="5"/>
</svg>
